<?xml version="1.0" standalone="no"?>
<!DOCTYPE svg PUBLIC "-//W3C//DTD SVG 20010904//EN"
 "http://www.w3.org/TR/2001/REC-SVG-20010904/DTD/svg10.dtd">
<svg version="1.0" xmlns="http://www.w3.org/2000/svg"
 width="512.000000pt" height="512.000000pt" viewBox="0 0 512.000000 512.000000"
 preserveAspectRatio="xMidYMid meet">
<metadata>
Created by potrace 1.11, written by Peter Selinger 2001-2013
</metadata>
<g transform="translate(0.000000,512.000000) scale(0.100000,-0.100000)"
fill="#000000" stroke="none">
<path d="M2470 5079 c-74 -50 -248 -206 -310 -278 -266 -313 -408 -627 -464
-1026 -11 -73 -13 -171 -10 -360 2 -143 5 -278 8 -300 2 -22 7 -85 10 -140 4
-55 9 -111 11 -125 2 -14 7 -63 10 -110 3 -47 8 -105 10 -130 3 -25 7 -83 10
-130 4 -47 8 -96 10 -110 2 -14 7 -54 10 -90 4 -36 10 -98 15 -138 9 -82 10
-79 -90 -232 -27 -41 -66 -102 -86 -135 -21 -33 -66 -103 -100 -155 -317 -489
-301 -433 -303 -1077 -1 -405 1 -477 14 -502 18 -35 62 -48 98 -29 14 7 162
180 329 384 l305 371 23 -44 c29 -54 88 -109 149 -137 39 -18 69 -21 204 -24
l157 -4 0 -243 c0 -134 4 -255 9 -268 11 -28 61 -52 91 -42 11 4 30 16 40 28
19 19 20 36 20 274 l0 253 135 1 c74 1 138 2 143 3 97 19 180 75 226 152 l31
51 45 -56 c25 -30 79 -96 120 -146 41 -50 91 -110 110 -134 19 -25 49 -60 65
-80 17 -20 69 -83 115 -141 46 -58 97 -118 112 -134 15 -17 28 -33 28 -38 0
-22 81 -44 109 -29 41 22 42 46 39 557 -5 540 -4 537 -72 679 -30 62 -158 271
-185 302 -6 7 -11 14 -11 16 0 3 -72 116 -160 253 -145 225 -160 252 -156 284
3 19 8 62 11 95 3 33 8 78 10 100 8 80 15 151 20 215 3 36 7 90 10 120 3 30 7
91 11 135 3 44 7 94 9 110 2 17 6 75 10 130 4 55 9 120 11 145 12 122 11 511
-2 610 -18 141 -19 143 -43 240 -63 247 -171 473 -329 685 -135 181 -422 435
-492 435 -16 0 -54 -18 -90 -41z"/>
</g>
</svg>
